<mxfile host="app.diagrams.net" modified="2023-11-17T08:31:02.309Z" agent="Mozilla/5.0 (Windows NT 10.0; Win64; x64) AppleWebKit/537.36 (KHTML, like Gecko) Chrome/119.0.0.0 Safari/537.36" etag="GleCgijy_r5pHMgsimUw" version="22.1.2" type="device">
  <diagram name="Sayfa -1" id="eKwf8i5POUbrf981azab">
    <mxGraphModel dx="1400" dy="723" grid="1" gridSize="10" guides="1" tooltips="1" connect="1" arrows="1" fold="1" page="1" pageScale="1" pageWidth="827" pageHeight="1169" math="0" shadow="0">
      <root>
        <mxCell id="0" />
        <mxCell id="1" parent="0" />
        <mxCell id="lk8GdQlvjir3y_zJ8EJS-1" value="" style="shape=umlActor;verticalLabelPosition=bottom;verticalAlign=top;html=1;outlineConnect=0;" parent="1" vertex="1">
          <mxGeometry x="67" y="440" width="32" height="60" as="geometry" />
        </mxCell>
        <mxCell id="lk8GdQlvjir3y_zJ8EJS-2" value="" style="endArrow=none;dashed=1;html=1;rounded=0;" parent="1" edge="1">
          <mxGeometry width="50" height="50" relative="1" as="geometry">
            <mxPoint x="83.47000000000003" y="530" as="sourcePoint" />
            <mxPoint x="83" y="950" as="targetPoint" />
          </mxGeometry>
        </mxCell>
        <mxCell id="lk8GdQlvjir3y_zJ8EJS-3" value="" style="endArrow=none;dashed=1;html=1;rounded=0;" parent="1" edge="1">
          <mxGeometry width="50" height="50" relative="1" as="geometry">
            <mxPoint x="416.25" y="530" as="sourcePoint" />
            <mxPoint x="416" y="950" as="targetPoint" />
          </mxGeometry>
        </mxCell>
        <mxCell id="lk8GdQlvjir3y_zJ8EJS-4" value="" style="endArrow=none;dashed=1;html=1;rounded=0;" parent="1" edge="1">
          <mxGeometry width="50" height="50" relative="1" as="geometry">
            <mxPoint x="744" y="530" as="sourcePoint" />
            <mxPoint x="744" y="950" as="targetPoint" />
          </mxGeometry>
        </mxCell>
        <mxCell id="lk8GdQlvjir3y_zJ8EJS-5" value="&lt;b style=&quot;border-color: var(--border-color);&quot;&gt;&lt;font style=&quot;border-color: var(--border-color); font-size: 14px;&quot;&gt;:System&lt;/font&gt;&lt;/b&gt;" style="rounded=0;whiteSpace=wrap;html=1;" parent="1" vertex="1">
          <mxGeometry x="367.5" y="500" width="100" height="30" as="geometry" />
        </mxCell>
        <mxCell id="lk8GdQlvjir3y_zJ8EJS-6" value="&lt;b style=&quot;border-color: var(--border-color);&quot;&gt;&lt;font style=&quot;border-color: var(--border-color); font-size: 14px;&quot;&gt;:Advisor&lt;/font&gt;&lt;/b&gt;" style="rounded=0;whiteSpace=wrap;html=1;" parent="1" vertex="1">
          <mxGeometry x="694" y="500" width="100" height="30" as="geometry" />
        </mxCell>
        <mxCell id="lk8GdQlvjir3y_zJ8EJS-7" value="&lt;b&gt;&lt;font style=&quot;font-size: 14px;&quot;&gt;:Student&lt;/font&gt;&lt;/b&gt;" style="rounded=0;whiteSpace=wrap;html=1;" parent="1" vertex="1">
          <mxGeometry x="34" y="500" width="100" height="30" as="geometry" />
        </mxCell>
        <mxCell id="lk8GdQlvjir3y_zJ8EJS-8" value="" style="endArrow=classic;html=1;rounded=0;" parent="1" edge="1">
          <mxGeometry width="50" height="50" relative="1" as="geometry">
            <mxPoint x="84" y="580" as="sourcePoint" />
            <mxPoint x="414" y="580" as="targetPoint" />
          </mxGeometry>
        </mxCell>
        <mxCell id="lk8GdQlvjir3y_zJ8EJS-9" value="Enters&amp;nbsp;user name and password" style="edgeLabel;html=1;align=center;verticalAlign=middle;resizable=0;points=[];" parent="lk8GdQlvjir3y_zJ8EJS-8" vertex="1" connectable="0">
          <mxGeometry x="-0.0083" y="3" relative="1" as="geometry">
            <mxPoint as="offset" />
          </mxGeometry>
        </mxCell>
        <mxCell id="lk8GdQlvjir3y_zJ8EJS-10" value="" style="endArrow=classic;html=1;rounded=0;dashed=1;" parent="1" edge="1">
          <mxGeometry width="50" height="50" relative="1" as="geometry">
            <mxPoint x="414" y="620" as="sourcePoint" />
            <mxPoint x="84" y="620" as="targetPoint" />
          </mxGeometry>
        </mxCell>
        <mxCell id="lk8GdQlvjir3y_zJ8EJS-11" value="User name and password accepted or denied" style="edgeLabel;html=1;align=center;verticalAlign=middle;resizable=0;points=[];" parent="lk8GdQlvjir3y_zJ8EJS-10" vertex="1" connectable="0">
          <mxGeometry x="-0.006" y="3" relative="1" as="geometry">
            <mxPoint as="offset" />
          </mxGeometry>
        </mxCell>
        <mxCell id="lk8GdQlvjir3y_zJ8EJS-12" value="loop" style="shape=umlFrame;whiteSpace=wrap;html=1;pointerEvents=0;" parent="1" vertex="1">
          <mxGeometry x="44" y="660" width="400" height="80" as="geometry" />
        </mxCell>
        <mxCell id="lk8GdQlvjir3y_zJ8EJS-13" value="" style="endArrow=classic;html=1;rounded=0;" parent="1" edge="1">
          <mxGeometry width="50" height="50" relative="1" as="geometry">
            <mxPoint x="84" y="700" as="sourcePoint" />
            <mxPoint x="414" y="700" as="targetPoint" />
          </mxGeometry>
        </mxCell>
        <mxCell id="lk8GdQlvjir3y_zJ8EJS-14" value="Select classes" style="edgeLabel;html=1;align=center;verticalAlign=middle;resizable=0;points=[];" parent="lk8GdQlvjir3y_zJ8EJS-13" vertex="1" connectable="0">
          <mxGeometry x="-0.0083" y="3" relative="1" as="geometry">
            <mxPoint as="offset" />
          </mxGeometry>
        </mxCell>
        <mxCell id="lk8GdQlvjir3y_zJ8EJS-15" value="" style="endArrow=classic;html=1;rounded=0;" parent="1" edge="1">
          <mxGeometry width="50" height="50" relative="1" as="geometry">
            <mxPoint x="84" y="820" as="sourcePoint" />
            <mxPoint x="414" y="820" as="targetPoint" />
          </mxGeometry>
        </mxCell>
        <mxCell id="lk8GdQlvjir3y_zJ8EJS-16" value="Send to the advisor&#39;s approval" style="edgeLabel;html=1;align=center;verticalAlign=middle;resizable=0;points=[];" parent="lk8GdQlvjir3y_zJ8EJS-15" vertex="1" connectable="0">
          <mxGeometry x="-0.0083" y="3" relative="1" as="geometry">
            <mxPoint as="offset" />
          </mxGeometry>
        </mxCell>
        <mxCell id="lk8GdQlvjir3y_zJ8EJS-17" value="" style="endArrow=classic;html=1;rounded=0;" parent="1" edge="1">
          <mxGeometry width="50" height="50" relative="1" as="geometry">
            <mxPoint x="84" y="780" as="sourcePoint" />
            <mxPoint x="414" y="780" as="targetPoint" />
          </mxGeometry>
        </mxCell>
        <mxCell id="lk8GdQlvjir3y_zJ8EJS-18" value="Save as draft" style="edgeLabel;html=1;align=center;verticalAlign=middle;resizable=0;points=[];" parent="lk8GdQlvjir3y_zJ8EJS-17" vertex="1" connectable="0">
          <mxGeometry x="-0.0083" y="3" relative="1" as="geometry">
            <mxPoint as="offset" />
          </mxGeometry>
        </mxCell>
        <mxCell id="lk8GdQlvjir3y_zJ8EJS-19" value="" style="endArrow=classic;html=1;rounded=0;" parent="1" edge="1">
          <mxGeometry width="50" height="50" relative="1" as="geometry">
            <mxPoint x="414" y="860" as="sourcePoint" />
            <mxPoint x="744" y="860" as="targetPoint" />
          </mxGeometry>
        </mxCell>
        <mxCell id="lk8GdQlvjir3y_zJ8EJS-20" value="View drafts" style="edgeLabel;html=1;align=center;verticalAlign=middle;resizable=0;points=[];" parent="lk8GdQlvjir3y_zJ8EJS-19" vertex="1" connectable="0">
          <mxGeometry x="-0.0083" y="3" relative="1" as="geometry">
            <mxPoint as="offset" />
          </mxGeometry>
        </mxCell>
        <mxCell id="lk8GdQlvjir3y_zJ8EJS-21" value="" style="endArrow=classic;html=1;rounded=0;dashed=1;" parent="1" edge="1">
          <mxGeometry width="50" height="50" relative="1" as="geometry">
            <mxPoint x="744" y="900" as="sourcePoint" />
            <mxPoint x="414" y="900" as="targetPoint" />
          </mxGeometry>
        </mxCell>
        <mxCell id="lk8GdQlvjir3y_zJ8EJS-22" value="Send acceptance or rejection message" style="edgeLabel;html=1;align=center;verticalAlign=middle;resizable=0;points=[];" parent="lk8GdQlvjir3y_zJ8EJS-21" vertex="1" connectable="0">
          <mxGeometry x="0.0236" y="3" relative="1" as="geometry">
            <mxPoint x="-1" as="offset" />
          </mxGeometry>
        </mxCell>
      </root>
    </mxGraphModel>
  </diagram>
</mxfile>
